<?xml version="1.0" encoding="UTF-8" standalone="no"?>
<svg width="113px" height="19px" viewBox="0 0 113 19" version="1.1" xmlns="http://www.w3.org/2000/svg" xmlns:xlink="http://www.w3.org/1999/xlink">
    <!-- Generator: Sketch 39.1 (31720) - http://www.bohemiancoding.com/sketch -->
    <title>logo-toyota</title>
    <desc>Created with Sketch.</desc>
    <defs></defs>
    <g id="Symbols" stroke="none" stroke-width="1" fill="none" fill-rule="evenodd">
        <g id="Footer" transform="translate(-261.000000, -87.000000)" fill="#ECEFF1">
            <g id="logo-toyota">
                <path d="M355.658097,92.2406985 L355.658097,102.555699 L352.577097,102.532699 L352.577097,92.2406985 L348.390097,92.2406985 L348.377097,89.8876985 L359.814097,89.8876985 L359.828097,92.2406985 L355.658097,92.2406985 Z M333.158097,96.1886985 C333.137097,92.4566985 336.356097,89.4776985 340.284097,89.5076985 C344.254097,89.5356985 347.465097,92.5616985 347.486097,96.2946985 C347.509097,99.9876985 344.331097,102.966699 340.361097,102.936699 C336.656097,102.909699 333.180097,100.057699 333.158097,96.1886985 L333.158097,96.1886985 Z M340.347097,100.502699 C342.548097,100.518699 344.349097,98.6246985 344.336097,96.2706985 C344.322097,93.9176985 342.499097,91.9976985 340.298097,91.9816985 C338.096097,91.9656985 336.338097,93.8586985 336.352097,96.2126985 C336.365097,98.4236985 338.035097,100.484699 340.347097,100.502699 L340.347097,100.502699 Z M363.476097,99.7296985 L362.328097,102.579699 L358.832097,102.579699 L364.326097,89.8646985 L368.081097,89.8646985 L373.721097,102.579699 L370.182097,102.579699 L369.001097,99.7296985 L363.476097,99.7296985 Z M368.125097,97.5736985 L366.243097,92.8936985 L366.199097,92.8936985 L364.327097,97.5456985 L368.125097,97.5736985 Z M300.048097,92.2406985 L300.048097,102.555699 L296.968097,102.532699 L296.968097,92.2406985 L292.780097,92.2406985 L292.767097,89.8876985 L304.205097,89.8876985 L304.219097,92.2406985 L300.048097,92.2406985 Z M305.017097,96.1896985 C304.996097,92.4576985 308.173097,89.4776985 312.100097,89.5076985 C316.070097,89.5356985 319.282097,92.5616985 319.304097,96.2946985 C319.325097,99.9876985 316.148097,102.966699 312.178097,102.936699 C308.467097,102.909699 305.040097,100.050699 305.017097,96.1896985 L305.017097,96.1896985 Z M312.164097,100.502699 C314.408097,100.518699 316.167097,98.6246985 316.153097,96.2706985 C316.139097,93.9186985 314.359097,91.9976985 312.115097,91.9816985 C309.913097,91.9656985 308.155097,93.8586985 308.169097,96.2126985 C308.182097,98.5656985 309.963097,100.485699 312.164097,100.502699 L312.164097,100.502699 Z M327.771097,102.591699 L327.771097,97.7626985 L332.992097,89.8526985 L329.496097,89.8526985 L326.247097,95.2586985 L322.935097,89.8526985 L319.440097,89.8526985 L324.735097,97.7626985 L324.735097,102.591699 L327.771097,102.591699 Z M274.623097,104.458699 C273.095097,103.554699 271.946097,100.315699 271.925097,96.4916985 C271.924097,96.3646985 271.923097,96.2366985 271.966097,96.1096985 C267.698097,95.3976985 264.641097,93.6326985 264.543097,91.5066985 L264.543097,91.5496985 C263.506097,92.7726985 262.948097,94.2146985 262.957097,95.7866985 C262.982097,100.333699 268.095097,104.111699 274.580097,104.458699 L274.623097,104.458699 Z M261.000097,96.1106985 C260.971097,91.0116985 267.433097,86.9386985 275.440097,87.0006985 C283.447097,87.0616985 289.954097,91.2326985 289.982097,96.3336985 C290.010097,101.388699 283.549097,105.504699 275.543097,105.442699 C267.535097,105.382699 261.028097,101.167699 261.000097,96.1106985 L261.000097,96.1106985 Z M275.448097,88.3176985 C277.014097,88.3296985 278.332097,90.6346985 278.829097,93.8256985 C281.829097,93.3806985 283.912097,92.3346985 283.904097,91.1006985 C283.896097,89.4876985 280.102097,88.0976985 275.446097,88.0626985 C270.790097,88.0266985 267.012097,89.3576985 267.020097,90.9726985 C267.027097,92.2046985 269.122097,93.2836985 272.127097,93.7736985 C272.588097,90.5916985 273.881097,88.3056985 275.448097,88.3176985 L275.448097,88.3176985 Z M276.451097,104.471699 C282.976097,104.224699 288.048097,100.524699 288.022097,95.9776985 C288.013097,94.4046985 287.439097,92.9566985 286.388097,91.7166985 L286.388097,91.6736985 C286.312097,93.7986985 283.276097,95.5166985 279.015097,96.1636985 C279.016097,96.2906985 279.060097,96.4196985 279.061097,96.5466985 C279.083097,100.371699 277.969097,103.592699 276.451097,104.471699 L276.451097,104.471699 Z M275.479097,94.0116985 C276.176097,94.0166985 276.828097,94.0226985 277.480097,93.9846985 C277.165097,91.8996985 276.373097,90.4486985 275.459097,90.4426985 C274.546097,90.4356985 273.769097,91.8746985 273.477097,93.9546985 C274.131097,94.0016985 274.783097,94.0076985 275.479097,94.0116985 L275.479097,94.0116985 Z M275.521097,101.618699 C276.696097,101.628699 277.640097,99.2556985 277.667097,96.2806985 L277.668097,96.3236985 C276.971097,96.3606985 276.232097,96.3976985 275.492097,96.3916985 C274.753097,96.3866985 274.012097,96.3386985 273.316097,96.2906985 L273.315097,96.2476985 C273.375097,99.2216985 274.346097,101.609699 275.521097,101.618699 L275.521097,101.618699 Z"></path>
            </g>
        </g>
    </g>
</svg>